<?xml version="1.0" encoding="UTF-8" standalone="no"?>
<!DOCTYPE svg PUBLIC "-//W3C//DTD SVG 1.1//EN" "http://www.w3.org/Graphics/SVG/1.1/DTD/svg11.dtd">
<svg width="100%" height="100%" viewBox="0 0 86 86" version="1.1" xmlns="http://www.w3.org/2000/svg" xmlns:xlink="http://www.w3.org/1999/xlink" xml:space="preserve" xmlns:serif="http://www.serif.com/" style="fill-rule:evenodd;clip-rule:evenodd;stroke-linejoin:round;stroke-miterlimit:2;">
    <g id="Ebene-1" serif:id="Ebene 1" transform="matrix(1,0,0,1,0,-966.362)">
        <g transform="matrix(1,0,0,1,0,966.362)">
            <path d="M43,0.3C19.417,0.3 0.3,19.418 0.3,43L0.3,84.277C0.3,85.063 0.937,85.7 1.723,85.7L84.276,85.7C85.062,85.7 85.699,85.063 85.699,84.277L85.699,43C85.7,19.418 66.583,0.3 43,0.3Z" style="fill:url(#_Linear1);fill-rule:nonzero;"/>
        </g>
        <g transform="matrix(0.123164,0,0,0.123164,11.47,977.832)">
            <g>
                <g transform="matrix(0.350287,0,0,0.350287,166.326,-15.3348)">
                    <path d="M497,128.533L15,128.533C6.716,128.533 0,135.249 0,143.533L0,497C0,505.284 6.716,512 15,512L497,512C505.284,512 512,505.284 512,497L512,143.533C512,135.249 505.284,128.533 497,128.533Z" style="fill:white;fill-opacity:0.2;fill-rule:nonzero;"/>
                </g>
                <g transform="matrix(0.517691,0,0,0.517691,123.471,-20.233)">
                    <path d="M497,128.533L15,128.533C6.716,128.533 0,135.249 0,143.533L0,497C0,505.284 6.716,512 15,512L497,512C505.284,512 512,505.284 512,497L512,143.533C512,135.249 505.284,128.533 497,128.533Z" style="fill:white;fill-opacity:0.4;fill-rule:nonzero;"/>
                </g>
                <g transform="matrix(0.682962,0,0,0.682962,81.1616,-16.3294)">
                    <path d="M497,128.533L15,128.533C6.716,128.533 0,135.249 0,143.533L0,497C0,505.284 6.716,512 15,512L497,512C505.284,512 512,505.284 512,497L512,143.533C512,135.249 505.284,128.533 497,128.533Z" style="fill:white;fill-opacity:0.6;fill-rule:nonzero;"/>
                </g>
                <g transform="matrix(0.854749,0,0,0.854749,37.1842,-14.5123)">
                    <path d="M497,128.533L15,128.533C6.716,128.533 0,135.249 0,143.533L0,497C0,505.284 6.716,512 15,512L497,512C505.284,512 512,505.284 512,497L512,143.533C512,135.249 505.284,128.533 497,128.533Z" style="fill:white;fill-opacity:0.8;fill-rule:nonzero;"/>
                </g>
                <path d="M497,128.533L15,128.533C6.716,128.533 0,135.249 0,143.533L0,497C0,505.284 6.716,512 15,512L497,512C505.284,512 512,505.284 512,497L512,143.533C512,135.249 505.284,128.533 497,128.533Z" style="fill:white;fill-rule:nonzero;"/>
            </g>
            <g>
                <path d="M340.637,307.787L220.137,227.453C215.535,224.384 209.616,224.099 204.739,226.708C199.862,229.318 196.817,234.401 196.817,239.934L196.817,400.601C196.817,406.133 199.862,411.216 204.739,413.827C206.957,415.013 209.389,415.601 211.816,415.601C214.726,415.601 217.628,414.755 220.137,413.081L340.637,332.748C344.81,329.967 347.317,325.283 347.317,320.268C347.317,315.253 344.81,310.569 340.637,307.787Z" style="fill:rgb(217,209,30);fill-rule:nonzero;"/>
            </g>
        </g>
        <g opacity="0.3">
            <g transform="matrix(1,0,0,1,0,966.362)">
                <path d="M19.799,30.594C19.799,30.111 19.407,29.719 18.923,29.719L15.003,29.719C14.52,29.719 14.128,30.111 14.128,30.594L14.128,32.345C14.128,32.828 14.52,33.221 15.003,33.221L18.923,33.221C19.407,33.221 19.799,32.828 19.799,32.345L19.799,30.594Z" style="fill:rgb(80,63,41);"/>
            </g>
            <g transform="matrix(1,0,0,1,26.1297,966.362)">
                <path d="M19.799,30.594C19.799,30.111 19.407,29.719 18.923,29.719L15.003,29.719C14.52,29.719 14.128,30.111 14.128,30.594L14.128,32.345C14.128,32.828 14.52,33.221 15.003,33.221L18.923,33.221C19.407,33.221 19.799,32.828 19.799,32.345L19.799,30.594Z" style="fill:rgb(80,63,41);"/>
            </g>
            <g transform="matrix(1,0,0,1,34.8395,966.362)">
                <path d="M19.799,30.594C19.799,30.111 19.407,29.719 18.923,29.719L15.003,29.719C14.52,29.719 14.128,30.111 14.128,30.594L14.128,32.345C14.128,32.828 14.52,33.221 15.003,33.221L18.923,33.221C19.407,33.221 19.799,32.828 19.799,32.345L19.799,30.594Z" style="fill:rgb(80,63,41);"/>
            </g>
            <g transform="matrix(1,0,0,1,43.5494,966.362)">
                <path d="M19.799,30.594C19.799,30.111 19.407,29.719 18.923,29.719L15.003,29.719C14.52,29.719 14.128,30.111 14.128,30.594L14.128,32.345C14.128,32.828 14.52,33.221 15.003,33.221L18.923,33.221C19.407,33.221 19.799,32.828 19.799,32.345L19.799,30.594Z" style="fill:rgb(80,63,41);"/>
            </g>
            <g transform="matrix(1,0,0,1,52.2593,966.362)">
                <path d="M19.799,30.594C19.799,30.111 19.407,29.719 18.923,29.719L15.003,29.719C14.52,29.719 14.128,30.111 14.128,30.594L14.128,32.345C14.128,32.828 14.52,33.221 15.003,33.221L18.923,33.221C19.407,33.221 19.799,32.828 19.799,32.345L19.799,30.594Z" style="fill:rgb(80,63,41);"/>
            </g>
            <g transform="matrix(1,0,0,1,17.4198,966.362)">
                <path d="M19.799,30.594C19.799,30.111 19.407,29.719 18.923,29.719L15.003,29.719C14.52,29.719 14.128,30.111 14.128,30.594L14.128,32.345C14.128,32.828 14.52,33.221 15.003,33.221L18.923,33.221C19.407,33.221 19.799,32.828 19.799,32.345L19.799,30.594Z" style="fill:rgb(80,63,41);"/>
            </g>
            <g transform="matrix(1,0,0,1,8.70988,966.362)">
                <path d="M19.799,30.594C19.799,30.111 19.407,29.719 18.923,29.719L15.003,29.719C14.52,29.719 14.128,30.111 14.128,30.594L14.128,32.345C14.128,32.828 14.52,33.221 15.003,33.221L18.923,33.221C19.407,33.221 19.799,32.828 19.799,32.345L19.799,30.594Z" style="fill:rgb(80,63,41);"/>
            </g>
        </g>
        <g opacity="0.3">
            <g transform="matrix(1,0,0,1,0,1005.13)">
                <path d="M19.799,30.594C19.799,30.111 19.407,29.719 18.923,29.719L15.003,29.719C14.52,29.719 14.128,30.111 14.128,30.594L14.128,32.345C14.128,32.828 14.52,33.221 15.003,33.221L18.923,33.221C19.407,33.221 19.799,32.828 19.799,32.345L19.799,30.594Z" style="fill:rgb(80,63,41);"/>
            </g>
            <g transform="matrix(1,0,0,1,26.1297,1005.13)">
                <path d="M19.799,30.594C19.799,30.111 19.407,29.719 18.923,29.719L15.003,29.719C14.52,29.719 14.128,30.111 14.128,30.594L14.128,32.345C14.128,32.828 14.52,33.221 15.003,33.221L18.923,33.221C19.407,33.221 19.799,32.828 19.799,32.345L19.799,30.594Z" style="fill:rgb(80,63,41);"/>
            </g>
            <g transform="matrix(1,0,0,1,34.8395,1005.13)">
                <path d="M19.799,30.594C19.799,30.111 19.407,29.719 18.923,29.719L15.003,29.719C14.52,29.719 14.128,30.111 14.128,30.594L14.128,32.345C14.128,32.828 14.52,33.221 15.003,33.221L18.923,33.221C19.407,33.221 19.799,32.828 19.799,32.345L19.799,30.594Z" style="fill:rgb(80,63,41);"/>
            </g>
            <g transform="matrix(1,0,0,1,43.5494,1005.13)">
                <path d="M19.799,30.594C19.799,30.111 19.407,29.719 18.923,29.719L15.003,29.719C14.52,29.719 14.128,30.111 14.128,30.594L14.128,32.345C14.128,32.828 14.52,33.221 15.003,33.221L18.923,33.221C19.407,33.221 19.799,32.828 19.799,32.345L19.799,30.594Z" style="fill:rgb(80,63,41);"/>
            </g>
            <g transform="matrix(1,0,0,1,52.2593,1005.13)">
                <path d="M19.799,30.594C19.799,30.111 19.407,29.719 18.923,29.719L15.003,29.719C14.52,29.719 14.128,30.111 14.128,30.594L14.128,32.345C14.128,32.828 14.52,33.221 15.003,33.221L18.923,33.221C19.407,33.221 19.799,32.828 19.799,32.345L19.799,30.594Z" style="fill:rgb(80,63,41);"/>
            </g>
            <g transform="matrix(1,0,0,1,17.4198,1005.13)">
                <path d="M19.799,30.594C19.799,30.111 19.407,29.719 18.923,29.719L15.003,29.719C14.52,29.719 14.128,30.111 14.128,30.594L14.128,32.345C14.128,32.828 14.52,33.221 15.003,33.221L18.923,33.221C19.407,33.221 19.799,32.828 19.799,32.345L19.799,30.594Z" style="fill:rgb(80,63,41);"/>
            </g>
            <g transform="matrix(1,0,0,1,8.70988,1005.13)">
                <path d="M19.799,30.594C19.799,30.111 19.407,29.719 18.923,29.719L15.003,29.719C14.52,29.719 14.128,30.111 14.128,30.594L14.128,32.345C14.128,32.828 14.52,33.221 15.003,33.221L18.923,33.221C19.407,33.221 19.799,32.828 19.799,32.345L19.799,30.594Z" style="fill:rgb(80,63,41);"/>
            </g>
        </g>
    </g>
    <defs>
        <linearGradient id="_Linear1" x1="0" y1="0" x2="1" y2="0" gradientUnits="userSpaceOnUse" gradientTransform="matrix(0.598341,-80.3789,80.3799,0.598348,41.253,82.9541)"><stop offset="0" style="stop-color:rgb(194,121,31);stop-opacity:1"/><stop offset="1" style="stop-color:rgb(217,208,30);stop-opacity:1"/></linearGradient>
    </defs>
</svg>
